<?xml version="1.0" standalone="no"?>
<!DOCTYPE svg PUBLIC "-//W3C//DTD SVG 20010904//EN"
 "http://www.w3.org/TR/2001/REC-SVG-20010904/DTD/svg10.dtd">
<svg version="1.0" xmlns="http://www.w3.org/2000/svg"
 width="366.000000pt" height="357.000000pt" viewBox="0 0 366.000000 357.000000"
 preserveAspectRatio="xMidYMid meet">

<g transform="translate(0.000000,357.000000) scale(0.100000,-0.100000)"
fill="#000000" stroke="none">
<path d="M1465 3550 c-471 -94 -856 -426 -1015 -875 -120 -341 -102 -713 51
-1034 70 -148 149 -260 258 -371 127 -127 209 -187 366 -265 145 -72 254 -107
408 -129 133 -20 281 -22 274 -3 -3 7 -15 89 -27 181 -15 105 -28 173 -37 182
-12 12 -85 14 -436 14 -321 0 -428 3 -447 13 l-25 13 1 269 c0 151 6 314 13
370 48 383 197 578 398 520 50 -15 68 -28 133 -94 157 -160 285 -400 393 -737
25 -78 49 -158 52 -178 4 -19 14 -41 21 -47 11 -9 88 -10 312 -5 261 6 305 9
359 27 35 11 73 29 85 39 21 17 21 20 8 34 -9 9 -87 30 -186 50 -94 20 -200
45 -235 56 -170 52 -252 170 -235 337 19 182 158 623 397 1257 43 115 78 210
76 212 -1 1 -42 22 -92 47 -108 53 -253 101 -371 122 -122 21 -382 19 -499 -5z
m173 -146 c187 -96 332 -181 332 -194 0 -5 -13 -18 -30 -30 -19 -14 -30 -30
-30 -45 0 -42 46 -128 94 -176 50 -51 54 -60 30 -83 -37 -38 -53 -22 -125 128
-69 145 -89 156 -69 37 38 -225 -90 -419 -309 -471 -267 -63 -522 179 -480
455 13 78 10 82 -72 127 -33 17 -59 34 -59 38 0 13 505 300 528 300 13 0 99
-39 190 -86z"/>
<path d="M1334 3221 c-105 -48 -167 -145 -168 -262 -1 -209 214 -342 402 -248
102 50 153 137 154 256 1 114 -74 222 -180 257 -62 22 -157 20 -208 -3z"/>
<path d="M2455 3142 c-236 -656 -297 -845 -359 -1112 -30 -130 -34 -161 -25
-193 23 -83 127 -139 326 -177 257 -49 265 -51 306 -91 31 -31 37 -43 37 -78
0 -50 -17 -85 -62 -128 -72 -69 -203 -93 -513 -93 -128 0 -246 -3 -262 -6
l-29 -6 27 -195 c15 -107 29 -197 32 -199 10 -10 203 45 300 84 175 72 334
178 467 312 473 475 530 1193 139 1750 -54 76 -228 259 -285 298 l-31 22 -68
-188z"/>
<path d="M1112 2316 c-101 -91 -157 -324 -169 -696 -5 -177 -4 -197 11 -213
16 -15 51 -17 381 -17 213 0 366 4 370 9 8 13 -74 272 -130 411 -103 258 -231
449 -346 519 -48 29 -73 26 -117 -13z"/>
<path d="M765 525 c-21 -8 -47 -24 -57 -37 -19 -25 -24 -89 -8 -118 12 -22 67
-40 121 -40 78 0 114 -69 66 -125 -45 -53 -177 -38 -177 19 0 15 -4 26 -10 26
-5 0 -10 -17 -10 -39 0 -45 11 -51 98 -51 69 0 117 21 142 62 43 71 11 131
-76 143 -114 15 -127 23 -127 77 0 22 8 38 27 55 48 41 143 25 157 -27 6 -22
7 -20 8 11 1 41 -4 44 -70 53 -27 4 -59 0 -84 -9z"/>
<path d="M1000 488 c0 -32 3 -39 10 -28 5 8 10 23 10 33 0 14 9 17 55 17 l55
0 -2 -167 -3 -167 -25 -7 c-15 -4 8 -7 55 -7 47 0 70 3 55 7 -23 6 -26 13 -34
90 -4 46 -5 121 -1 167 l7 84 54 0 c54 0 54 0 54 -32 0 -40 6 -34 13 15 l6 37
-155 0 -154 0 0 -42z"/>
<path d="M1360 488 c0 -32 3 -39 10 -28 5 8 10 23 10 33 0 14 9 17 55 17 l55
0 -2 -167 -3 -167 -25 -7 c-15 -4 8 -7 55 -7 47 0 70 3 55 7 l-25 7 -3 167 -2
167 55 0 55 0 0 -32 c0 -40 6 -34 13 15 l6 37 -155 0 -154 0 0 -42z"/>
<path d="M2275 523 c11 -3 23 -10 27 -17 4 -6 8 -78 8 -161 0 -82 -4 -155 -8
-161 -4 -7 -16 -14 -27 -17 -11 -2 9 -5 45 -5 41 0 56 3 40 7 l-25 7 -3 153
-3 153 129 -158 c83 -104 135 -160 150 -162 21 -3 22 -2 24 174 l3 178 25 7
c15 4 -2 7 -45 7 -45 0 -59 -3 -40 -7 l30 -6 3 -149 c1 -88 -1 -146 -7 -144
-10 3 -152 174 -213 256 -37 50 -40 52 -86 51 -26 -1 -38 -4 -27 -6z"/>
<path d="M2750 523 c14 -3 28 -10 32 -17 4 -6 8 -78 8 -161 0 -82 -4 -155 -8
-161 -4 -7 -18 -14 -32 -17 -14 -2 13 -4 60 -4 47 0 74 2 60 4 -35 7 -40 18
-40 101 l0 73 62 -3 c57 -3 63 -5 69 -28 5 -17 7 -5 7 35 1 45 -1 55 -8 38 -8
-20 -16 -23 -70 -23 l-60 0 0 75 0 74 33 6 c17 3 50 2 72 -2 30 -7 41 -14 45
-33 5 -22 7 -23 13 -7 4 10 7 27 7 38 0 18 -8 19 -137 18 -76 -1 -127 -4 -113
-6z"/>
<path d="M1897 293 c-18 -17 -1 -23 63 -23 56 0 70 3 70 15 0 12 -14 15 -63
15 -35 0 -67 -3 -70 -7z"/>
</g>
</svg>
